<svg width="24" height="24" viewBox="0 0 24 24" fill="none" xmlns="http://www.w3.org/2000/svg">
<path d="M17.478 9.01106C17.4854 9.01102 17.4929 9.01101 17.5004 9.01101C19.9857 9.01101 22.0004 11.0294 22.0004 13.5193C22.0004 15.8398 20.2504 17.7508 18.0004 18M17.478 9.01106C17.4928 8.84606 17.5004 8.67896 17.5004 8.51009C17.5004 5.46695 15.038 3 12.0004 3C9.12361 3 6.7627 5.21267 6.52079 8.03192M17.478 9.01106C17.3757 10.1476 16.929 11.1846 16.2432 12.0165M6.52079 8.03192C3.98435 8.27373 2.00037 10.4139 2.00037 13.0183C2.00037 15.4417 3.71813 17.4632 6.00037 17.9273M6.52079 8.03192C6.67863 8.01687 6.8386 8.00917 7.00037 8.00917C8.12619 8.00917 9.16511 8.38194 10.0009 9.01101" stroke="#8F8881" stroke-width="1.5" stroke-linecap="round" stroke-linejoin="round"/>
<path d="M12.0004 13V21M12.0004 13C11.3002 13 9.9919 14.9943 9.50037 15.5M12.0004 13C12.7006 13 14.0089 14.9943 14.5004 15.5" stroke="#8F8881" stroke-width="1.5" stroke-linecap="round" stroke-linejoin="round"/>
</svg>
